<?xml version="1.0" encoding="iso-8859-1"?>
<!-- Generator: Adobe Illustrator 22.1.0, SVG Export Plug-In . SVG Version: 6.00 Build 0)  -->
<svg xmlns="http://www.w3.org/2000/svg" xmlns:xlink="http://www.w3.org/1999/xlink" version="1.1" id="Layer_3" x="0px" y="0px" viewBox="0 0 64 64" style="enable-background:new 0 0 64 64;" xml:space="preserve" width="512" height="512">
<g>
	<path d="M31,17c0-0.431-0.275-0.812-0.684-0.949l-6-2c-0.305-0.101-0.641-0.051-0.901,0.138C23.154,14.377,23,14.679,23,15v2   c0,2.206,1.794,4,4,4S31,19.206,31,17z M25,17v-0.613l3.881,1.294C28.602,18.45,27.864,19,27,19C25.897,19,25,18.103,25,17z"/>
	<path d="M39.684,14.051l-6,2C33.275,16.188,33,16.569,33,17c0,2.206,1.794,4,4,4s4-1.794,4-4v-2c0-0.321-0.154-0.623-0.415-0.811   C40.322,14,39.987,13.951,39.684,14.051z M39,17c0,1.103-0.897,2-2,2c-0.864,0-1.602-0.55-1.881-1.319L39,16.387V17z"/>
	<path d="M32.392,21.999L32,22l-0.392-0.001c-1.289-0.007-2.392-0.012-3.088,0.68C28.283,22.915,28,23.336,28,24   c0,1.573,1.718,4,4,4s4-2.427,4-4c0-0.664-0.283-1.085-0.521-1.321C34.783,21.986,33.679,21.991,32.392,21.999z M32,26   c-0.981,0-1.902-1.24-1.992-1.921c0.32-0.087,1.073-0.082,1.591-0.08L32,24l0.401-0.001c0.521-0.005,1.277-0.007,1.594,0.081   C33.922,24.734,32.991,26,32,26z"/>
	<path d="M28.229,13.973c0.289-0.068,0.532-0.261,0.665-0.526l0.38-0.759l2.019,2.019C31.488,14.902,31.744,15,32,15   s0.512-0.098,0.707-0.293l2.019-2.019l0.38,0.759c0.133,0.265,0.376,0.458,0.665,0.526c0.286,0.068,0.591,0.005,0.829-0.173l4-3   l-1.2-1.6l-3.042,2.281l-0.464-0.928c-0.144-0.288-0.417-0.488-0.734-0.54c-0.323-0.053-0.642,0.053-0.867,0.28L32,12.586   l-2.293-2.293c-0.227-0.227-0.546-0.331-0.867-0.28c-0.317,0.052-0.591,0.252-0.734,0.54l-0.464,0.928L24.6,9.2l-1.2,1.6l4,3   C27.638,13.979,27.94,14.041,28.229,13.973z"/>
	<path d="M42.908,45l-1.588-2.722l6.721,3.36C48.355,48.095,50.459,50,53,50c2.757,0,5-2.243,5-5c0-2.656-2.082-4.835-4.699-4.991   l-7.188-4.493L46.8,34.6c0.197-0.263,0.253-0.607,0.148-0.919s-0.357-0.552-0.674-0.643l-6.493-1.855L39.387,30H44   c0.107,0,0.214-0.017,0.316-0.051l3-1c0.523-0.175,0.807-0.741,0.632-1.265L46.388,23H48c0.36,0,0.692-0.194,0.87-0.507   s0.173-0.698-0.013-1.007l-2.86-4.767c-0.046-2.344-0.675-4.546-1.742-6.473C46.607,8.17,48,5.156,48,2c0-0.552-0.447-1-1-1h-1   c-3.253,0-6.474,1.028-9.143,2.886C35.341,3.322,33.709,3,32,3s-3.341,0.322-4.857,0.886C24.474,2.028,21.253,1,18,1h-1   c-0.553,0-1,0.448-1,1c0,3.156,1.393,6.17,3.744,8.245c-1.067,1.927-1.695,4.13-1.742,6.473l-2.86,4.767   c-0.186,0.309-0.19,0.694-0.013,1.007S15.64,23,16,23h1.612l-1.561,4.684c-0.175,0.524,0.108,1.09,0.632,1.265l3,1   C19.786,29.983,19.893,30,20,30h4.613l-0.395,1.183l-6.493,1.855c-0.316,0.09-0.568,0.331-0.674,0.643   c-0.104,0.312-0.049,0.656,0.148,0.919l0.687,0.916l-7.188,4.493C8.082,40.165,6,42.344,6,45c0,2.757,2.243,5,5,5   c2.541,0,4.645-1.905,4.959-4.362l6.721-3.36L21.092,45L21,45.158l-4.864,8.338c-0.174,0.299-0.182,0.667-0.019,0.973   c0.162,0.306,0.471,0.506,0.816,0.529l5.375,0.358l0.418,1.672C20.099,57.173,18,59.337,18,62c0,0.552,0.447,1,1,1h10   c0.553,0,1-0.448,1-1v-4v-2.131l1.934,0.129C31.956,55.999,31.978,56,32,56s0.044-0.001,0.066-0.002L34,55.869V58v4   c0,0.552,0.447,1,1,1h10c0.553,0,1-0.448,1-1c0-2.663-2.099-4.827-4.727-4.972l0.418-1.672l5.375-0.358   c0.346-0.023,0.654-0.223,0.816-0.529c0.163-0.306,0.155-0.673-0.019-0.973L43,45.158L42.908,45z M39.5,41H32v-1.546l7.249-6.343   l5.08,1.452L39.5,41z M43.149,8.567c-0.29-0.383-0.599-0.749-0.926-1.1C43.328,6.731,44,5.501,44,4.146V3.155   C44.643,3.061,45.292,3.003,45.943,3C45.703,5.121,44.705,7.105,43.149,8.567z M42,3.6v0.546c0,0.762-0.424,1.448-1.105,1.789   l-0.206,0.103c-0.533-0.423-1.101-0.801-1.693-1.145C39.944,4.347,40.952,3.913,42,3.6z M23.312,6.038l-0.206-0.103   C22.424,5.594,22,4.908,22,4.146V3.6c1.048,0.313,2.056,0.747,3.005,1.293C24.413,5.236,23.845,5.615,23.312,6.038z M18.057,3   c0.651,0.003,1.3,0.061,1.943,0.155v0.991c0,1.355,0.672,2.585,1.777,3.322c-0.327,0.351-0.636,0.717-0.926,1.1   C19.295,7.105,18.297,5.121,18.057,3z M18.265,27.368l1.684-5.051c0.103-0.305,0.051-0.64-0.137-0.901   C19.623,21.154,19.321,21,19,21h-1.233l2.091-3.485C19.951,17.359,20,17.181,20,17c0-6.617,5.383-12,12-12s12,5.383,12,12   c0,0.181,0.049,0.359,0.143,0.515L46.233,21H45c-0.321,0-0.623,0.154-0.812,0.416c-0.188,0.261-0.239,0.596-0.137,0.901   l1.684,5.051L43.838,28H37c-0.127,0-0.253,0.024-0.371,0.071L32,29.923l-4.629-1.852C27.253,28.024,27.127,28,27,28h-6.838   L18.265,27.368z M26.808,30l4.821,1.929C31.748,31.976,31.874,32,32,32s0.252-0.024,0.371-0.071L37.192,30h0.087l0.561,1.686   l-5.775,5.054l-5.904-5.061L26.72,30H26.808z M24.758,33.109l5.787,4.961l-0.203,0.178C30.124,38.438,30,38.711,30,39v2h-5.5   l-4.828-6.438L24.758,33.109z M14.553,44.105C14.214,44.275,14,44.621,14,45c0,1.654-1.346,3-3,3c-0.462,0-0.894-0.113-1.285-0.301   l1.992-1.992l-1.414-1.414l-1.992,1.992C8.113,45.894,8,45.462,8,45c0-1.654,1.346-3,3-3c0.188,0,0.371-0.053,0.53-0.152   l7.561-4.726l2.571,3.428L14.553,44.105z M28,61h-7.829c0.413-1.164,1.525-2,2.829-2h5V61z M28,57h-3.22l-0.376-1.504L28,55.735V57   z M43.829,61H36v-2h5C42.304,59,43.416,59.836,43.829,61z M39.22,57H36v-1.265l3.596-0.24L39.22,57z M32,53.998L18.677,53.11   L22.241,47H32v3c0,0.552,0.447,1,1,1h4c0.553,0,1-0.448,1-1v-3h3.759l3.564,6.109L32,53.998z M34,47h2v2h-2V47z M23.408,45l1.167-2   h14.85l1.167,2H23.408z M50,45c0-0.379-0.214-0.725-0.553-0.895l-7.11-3.555l2.571-3.428l7.561,4.726   C52.629,41.947,52.812,42,53,42c1.654,0,3,1.346,3,3c0,0.462-0.113,0.894-0.301,1.285l-1.992-1.992l-1.414,1.414l1.992,1.992   C53.894,47.887,53.462,48,53,48C51.346,48,50,46.654,50,45z"/>
</g>
</svg>
