<svg height="512" viewBox="0 0 512 512" width="512" xmlns="http://www.w3.org/2000/svg"><g id="outline"><path d="m170.343 93.657a8 8 0 0 0 11.314 0l35.029-35.03a24.97 24.97 0 1 0 -35.313-35.313l-5.373 5.373-5.373-5.373a24.97 24.97 0 1 0 -35.313 35.313zm-17.372-61.657a8.912 8.912 0 0 1 6.343 2.627l11.029 11.03a8 8 0 0 0 11.314 0l11.029-11.03a8.971 8.971 0 0 1 12.687 12.687l-29.373 29.373-29.373-29.373a8.971 8.971 0 0 1 6.344-15.314z"/><path d="m216 208a8 8 0 0 0 -8-8h-64a8 8 0 0 0 -8 8v168a120 120 0 0 0 240 0v-168a8 8 0 0 0 -8-8h-64a8 8 0 0 0 -8 8v168a40 40 0 0 1 -80 0zm-64 8h48v32h-48zm160 0h48v32h-48zm-56 216a56.064 56.064 0 0 0 56-56v-112h48v112a104 104 0 0 1 -208 0v-112h48v112a56.064 56.064 0 0 0 56 56z"/><path d="m330.343 181.657a8 8 0 0 0 11.314 0l42.035-42.035a28.365 28.365 0 1 0 -40.113-40.114l-7.579 7.578-7.579-7.579a28.365 28.365 0 0 0 -40.113 40.115zm-21.978-74.457a12.287 12.287 0 0 1 8.743 3.621l13.235 13.236a8 8 0 0 0 11.314 0l13.235-13.235a12.364 12.364 0 1 1 17.486 17.486l-36.378 36.379-36.378-36.379a12.364 12.364 0 0 1 8.743-21.108z"/><path d="m144 136a8 8 0 0 0 8-8v-8a8 8 0 0 0 -16 0v8a8 8 0 0 0 8 8z"/><path d="m184 160v-40a8 8 0 0 0 -16 0v40a8 8 0 0 0 16 0z"/><path d="m216 136v-16a8 8 0 0 0 -16 0v16a8 8 0 0 0 16 0z"/><path d="m136 176a8 8 0 0 0 16 0v-24a8 8 0 0 0 -16 0z"/><path d="m336 304a8 8 0 0 0 8-8v-8a8 8 0 0 0 -16 0v8a8 8 0 0 0 8 8z"/><path d="m336 360a8 8 0 0 0 8-8v-24a8 8 0 0 0 -16 0v24a8 8 0 0 0 8 8z"/></g></svg>