<?xml version="1.0" standalone="no"?>
<!DOCTYPE svg PUBLIC "-//W3C//DTD SVG 20010904//EN"
 "http://www.w3.org/TR/2001/REC-SVG-20010904/DTD/svg10.dtd">
<svg version="1.0" xmlns="http://www.w3.org/2000/svg"
 width="551.000000pt" height="551.000000pt" viewBox="0 0 551.000000 551.000000"
 preserveAspectRatio="xMidYMid meet">
<metadata>
Created by potrace 1.11, written by Peter Selinger 2001-2013
</metadata>
<g transform="translate(0.000000,551.000000) scale(0.100000,-0.100000)"
fill="#000000" stroke="none">
<path d="M2559 5496 c-2 -2 -38 -7 -79 -10 -125 -12 -265 -35 -370 -63 -30 -8
-64 -16 -76 -19 -51 -10 -249 -79 -349 -122 -677 -288 -1215 -840 -1488 -1527
-37 -93 -103 -302 -112 -357 -3 -17 -8 -34 -10 -37 -6 -10 -44 -232 -50 -296
-4 -33 -9 -76 -11 -95 -6 -46 -6 -408 0 -440 2 -14 7 -52 11 -85 7 -64 13
-114 21 -155 2 -14 7 -40 10 -59 22 -130 84 -341 143 -490 341 -852 1086
-1485 1971 -1676 58 -12 127 -26 153 -29 27 -4 58 -9 69 -11 96 -19 475 -26
613 -13 716 72 1358 401 1823 934 342 392 578 903 648 1399 3 28 8 59 10 70
18 93 23 424 10 570 -11 126 -37 289 -62 390 -8 33 -17 71 -20 85 -9 43 -87
275 -95 284 -5 6 -9 16 -9 23 0 21 -120 268 -179 368 -172 291 -415 571 -672
773 -408 319 -891 518 -1409 579 -49 6 -485 14 -491 9z"/>
</g>
</svg>
