<?xml version="1.0" encoding="UTF-8"?>
<!DOCTYPE svg PUBLIC "-//W3C//DTD SVG 1.1//EN" "http://www.w3.org/Graphics/SVG/1.1/DTD/svg11.dtd">
<!-- Creator: CorelDRAW 2019 (64-Bit) -->
<svg xmlns="http://www.w3.org/2000/svg" xml:space="preserve" width="172.772mm" height="62.0889mm" version="1.1" style="shape-rendering:geometricPrecision; text-rendering:geometricPrecision; image-rendering:optimizeQuality; fill-rule:evenodd; clip-rule:evenodd"
viewBox="0 0 16565.13 5953"
 xmlns:xlink="http://www.w3.org/1999/xlink"
 xmlns:xodm="http://www.corel.com/coreldraw/odm/2003">
 <defs>
  <style type="text/css">
   <![CDATA[
    .str0 {stroke:#72B626;stroke-width:115.82;stroke-miterlimit:22.9256}
    .fil1 {fill:none}
    .fil0 {fill:#242424}
    .fil2 {fill:white;fill-rule:nonzero}
   ]]>
  </style>
 </defs>
 <g id="Слой_x0020_1">
  <metadata id="CorelCorpID_0Corel-Layer"/>
  <rect class="fil0" x="-0" y="-0" width="16565.13" height="5953"/>
 </g>
 <g id="__x0023_Layer_x0020_2">
  <metadata id="CorelCorpID_1Corel-Layer"/>
  <circle class="fil1 str0" cx="3236.89" cy="3174.28" r="1610.01"/>
  <path class="fil2" d="M1817.38 3092.96c-20.69,-0.93 -65.69,-7.54 -65.69,-7.54 0,0 54.39,8.47 86.81,13.33 -0.21,-0.07 -0.43,-0.12 -0.54,-0.35 -4.15,-2.68 -10.26,-5.01 -20.59,-5.45zm1562.62 -184.76c-12.76,-1.16 -24.62,-1.53 -24.62,-1.53 0,0 13.86,1.15 24.62,1.53zm1263.45 -116.95c-4.31,-10.81 -13.38,-20.86 -21.57,-27.84 -12.05,-10.48 -19.38,-19.5 -30.19,-31.73 -16.42,-18.67 -33.46,-31.93 -53.07,-47.93 -25.71,-20.81 -50.12,-41.45 -71.79,-66.67 -20.69,-23.96 -40.39,-49.24 -65.69,-68.79 -17.13,-13.38 -39.03,-21.39 -55.36,-35.64 -16.48,-14.36 -3.71,-36.74 -1.57,-54.82 3.43,-26.64 3.33,-53.17 3.33,-79.83l-2.57 -4.9c0.49,0.86 -10.59,26.85 -11.84,30.84 -3.43,10.64 -7.81,19 -14.54,27.84l-8.72 8.85c4.79,-16.22 3.55,-27.9 1.58,-44.62 -0.82,-8.4 -3.61,-16.48 -3.83,-25.1 -2.23,1.36 -3.15,3.71 -5.23,5.84 -8.07,8.07 -19.83,20.32 -21.29,32.54 -1.53,12.4 -4.14,27.95 -11.08,38.1 -15.78,-8.57 -18.02,-45.59 -20.1,-61.58 1.2,9.66 -2.23,19.34 -0.48,28.95 0.43,3 6.49,12.88 5.18,15.01 -4.47,6.38 -26.64,-22.45 -36.74,-15.94 -9.71,6 -5.14,30.79 -7.04,40.5 -0.78,4.58 -37.24,32.27 -42.7,34.19 -19.05,6.16 -53.71,0 -73.65,-2.24 -20.9,-2.19 -41.59,-8.14 -62.73,-8.14 -22.92,-1.26 -46.89,-32.53 -59.67,-48.58 -8.79,-10.86 -17.32,-26.33 -31.78,-29.98 -17.85,-4.59 -32.32,11.63 -49.63,12.56 -15.78,0.81 -32.48,-12.67 -47.88,-15.29 -20.59,-3.48 -42.74,-3.76 -62.57,3.71 -18.34,6.78 -36.91,12.62 -55.36,18.73l-20.04 6.22c0,0 0,0 8.74,5.14 8.72,4.97 23.91,4.97 38.93,10 15.07,5.01 27.52,1.19 27.52,1.19l11.19 0c0,0 23.9,0 27.73,1.26 3.61,1.31 29.98,0 33.69,1.31 19.92,6.55 61.76,2.4 70.27,27.3 -15.24,5.58 -45.32,-3.43 -61.98,-5.78 -21.73,-3 -43.56,-6.5 -65.35,-10.11 -33.79,-5.45 -79.98,-22.22 -113.67,-11.3 -25.49,8.3 -57.65,16.55 -84.79,14.91 15.88,1.04 32.21,2.14 48.32,2.46 -20.26,0.38 -40.84,8.18 -59.51,15.44 47.29,10 94.5,17.33 141.52,28.4 56.83,13.27 118.36,7.7 173.72,27.41 -24.95,4.3 -51.81,5.08 -76.87,0.82 -27.31,-4.71 -53.35,-14.86 -81.08,-19.22 -30.57,-4.81 -100.35,-16.71 -124.21,12.18 5.52,-6.78 55.64,14.96 61.98,19.43 -29.37,4.16 -59.41,-10.53 -89.49,-5.94 2.57,8.51 42.21,32.32 49.26,24.9 -12.35,13.1 -39.16,7.91 -54.17,3.12 5.68,2.78 17.09,12.22 23.05,12.5 -10.05,-0.45 -21.84,-2.85 -31.45,-0.28 5.72,13.05 22.91,16.98 35.26,20.09 -11.64,2.19 -23.43,3.5 -35.05,5.24 12.55,-1.74 31.67,5.73 44.32,7.54 16.11,2.19 32.33,4.05 48.66,5.62 13.86,1.32 30.79,0.12 44.43,3.93 8.74,2.57 7.6,5.51 13.98,9.29 6.5,3.65 -11.41,4.54 -13.2,4.86 -10.28,1.26 -20.15,5.29 -30.19,6.27 -14.91,1.31 -30.19,-2.51 -45.1,-0.87 25.38,11.41 59.62,11.79 86.48,13.48 -23.69,-1.58 -47.23,3.45 -71.14,0.17 -22.17,-2.79 -42.1,-12.57 -63.77,-17.09 -32.93,-6.83 -69.83,-5.08 -103.63,-6.89 37.39,9.44 74.62,19.62 112.21,27.91 16.37,3.61 32.69,6.87 49.24,9.55 16.87,2.73 36.14,9.22 52.9,10.04 -49.31,-2.4 -98.99,-8.68 -148.34,-7.31 14.58,1.97 27.63,9.49 41.88,13.05 15.88,4.05 31.88,7.43 48,10.2 26.96,4.64 54.26,4.81 80.96,9.18 7.54,1.26 27.63,3.78 27.63,3.78 -24.03,6.7 -52.47,11.45 -77.42,11.34 -38.5,-0.15 -68.91,3.61 -86.38,42.16 0.6,-1.31 27.3,-12.78 30.26,-14.08 15.38,-7.38 32.74,-8.03 49.4,-10.54 16.5,-2.57 34.95,-7.97 51.38,-3 -11.4,10.43 -38.16,12.27 -53.61,12.98 -19.44,0.88 -46.31,11.75 -57.71,28.83 -2.46,3.72 15.12,-1.31 15.12,-1.31 0,0 13.76,-7.47 17.62,-7.47 3.61,0 17.48,-2.51 24.97,-5.03 7.41,-2.55 12.55,0 20.03,0 22.82,0 44.55,-8.24 68.03,-6.93 -10.54,14.25 -26.26,15.13 -42.16,19.76 -18.61,5.57 -36.85,12.68 -56.72,14.1 -20.25,1.36 -39.09,-6.17 -59.4,-4.15 -14.57,1.51 -29.43,4.79 -44.01,2.29 -14.74,-2.57 -27.18,-13.76 -42.47,-13.76 -11.9,0 -20.04,-2.14 -23.97,10.69 -2.68,8.74 3.33,20.69 -6.72,26.48 -12.28,7.1 -31.88,-7.64 -37.12,-17.84 14.1,30.62 54.38,37.11 51.32,-4.92 18.03,-2.01 38.05,3.54 55.03,9.22 10.64,3.61 44.33,9.83 48.7,21.47 4.15,11.34 -14.3,16.97 -23.37,20.02l-22.48 7.5 -26.2 3.71 -32.66 8.79 -55.03 6.33c0,0 26.16,-1.26 32.55,-1.26 6.26,0 26.31,0 26.31,0 16.11,-3.11 34.45,-9.4 50.56,-8.9 -8.85,16.27 -34.45,20.2 -50.35,26.41 -15.45,6.07 -31.12,12.56 -46.89,17.76 -23.04,7.48 -42.76,6.7 -66.23,9.05 21.35,2.96 43.73,5.08 64.75,0.11 35.72,-8.62 66.29,-27.51 103.2,-33.4 -21.19,3.33 -33.81,18.61 -42.64,36.26 -21.74,43.35 -83.48,49.62 -126.24,46.35 -37.46,-3 -74.69,-12.18 -111.37,-19.4 -47.56,-9.11 -96.04,-14.3 -142.66,-27.62 -23.98,-6.83 -50.95,-15.01 -76.33,-15.01 -35.66,-0.11 -68.47,0.33 -103.24,9.94 -37.62,10.49 -73.5,26.8 -108.1,44.6 -32.77,16.71 -57.17,41.55 -87.03,61.92 -26.16,17.8 -55.14,31.45 -86.59,36.46 -26.76,4.27 -51.28,10.33 -77.11,18.03 0,0 -34.78,13.15 -51.69,9.44 -17,-3.76 -30.97,-3.76 -45.27,-8.47 -14.04,-4.69 -29.91,-9.4 -45.81,-13.15 -38.71,-9.07 -74.79,-22.93 -112.74,-33.74 -37.39,-10.6 -70.26,-13.11 -109.51,-10.82 -12.78,0.78 -26,2.07 -37.95,6.71 -9.28,3.57 -15.68,11.86 -23.59,17.43 7.48,-3.17 15.06,-7.1 22.82,-9.13 6.34,-1.74 20.47,0.99 25.07,-1.41 -14.36,7.64 -47.02,18.73 -51.38,36.52 0.43,-1.74 28.76,-10.92 31.55,-12.18 8.51,-3.72 16.11,-10.33 24.4,-15.01 8.58,-4.75 31.06,0 31.06,0 8.96,1.86 19.28,6.28 27.19,10.37 -25.6,5.9 -55.14,1.74 -79.76,10.32 -16.33,5.57 -30.41,21.02 -40.13,34.89 -20.74,29.32 -36.85,60.77 -72.93,73.86 -41.99,15.35 -94.03,5.31 -134.05,-12.12 -38.27,-16.65 -62.12,-50.12 -107.33,-50.33 15.98,13.09 45.21,15.17 54.48,36.35 0.81,1.75 -29.43,-3.33 -30.84,-3.86 -13.65,-5.64 -24.3,-14.86 -36.25,-23 -20.04,-13.54 -45.64,-10.64 -68.47,-14.3 27.19,6.83 59.51,15.45 74.86,41.23 1.51,2.29 -39.43,1.3 -41.28,1.47 3.76,-0.33 12.27,25.82 12.49,27.95 -8.19,-4.9 -15.56,-11.4 -23.81,-16.26 -5.4,14.74 4.38,28.34 13.43,39.09 2.57,3.27 22.22,31.01 24.47,31.34 -16.33,-2.14 -30.97,-11.14 -45.87,-17.42 5.47,2.35 15.9,25.28 19.93,30.8 6.93,9.28 14.3,18.23 22.05,26.69 16,17.52 38.93,30.8 51.53,51 8.42,13.59 6.5,28.98 20.59,39.2 12.9,9.23 30.14,11.26 44.88,16.38 17.09,5.9 34.24,8.19 49.24,18.9 15.51,10.98 27.09,15.01 45.32,20.15 36.8,10.48 68.36,12.88 106.95,11.34 36.59,-1.58 79.98,-2.29 109.64,-26.91 25.05,-20.69 35.32,-54.71 62.94,-73.38 28.68,-19.26 72.95,-13.54 106.09,-18.46 -2.24,18.07 -20.69,39.8 -34.34,52.47 -12.78,12.01 -31.66,19.05 -47.99,25.1 -11.74,4.38 -23.48,8.69 -35.17,13.28 23.2,-3.82 41.77,-8.9 63.22,-18.03 32.55,-13.7 52.03,-42.25 71.97,-70.63 10.65,33.85 -10.65,50.33 -38.17,66.65 -35.31,20.8 -69.71,43.85 -106.95,61.36 57.81,-7.54 135.12,-57.21 156.21,-113.33 2.45,-6.46 2.35,-16 6.61,-21.04 3.76,-4.76 13.86,-7.64 19,-11.24 -0.66,10.09 -1.27,20.13 -2.78,30.03 -0.82,6.65 -2.79,21.73 -5.53,30.13 -2.89,8.47 -15.16,21.62 -15.16,21.62 -3.93,5.74 -8.21,11.36 -12.01,17.15 4.36,-6.55 13.76,-11.41 18.83,-17.97 6.01,-7.65 10.59,-16.2 14.08,-25.34 7.58,-18.5 10.76,-38.64 17.2,-57.58 10.32,-30.09 40.17,-37.19 63.43,-54.78 18.95,-14.25 23.65,-25.54 45.98,-11.29 15.94,10.22 49.57,23.15 51.04,44.88 1.58,23.31 -17.57,41.99 -34.45,54.71 -16.54,12.51 -35.59,23.81 -52.96,34.67 -8.78,5.36 -22.66,7.09 -32.87,9.77 -17.91,4.7 -36.36,6.28 -54.8,8.47 11.84,-0.6 22.7,5.13 34.34,5.61 19.2,0.82 32.92,-9.87 50.55,-15.33 20.36,-6.4 32.11,-18.19 48.59,-30.57 3.77,-2.85 -0.81,16.98 -7.42,33.85 -8.79,22.12 -27.09,36.36 -41.39,54.54 26.65,-10.36 36.16,-27.52 47.45,-52.68 12.88,-28.55 28.06,-58.26 51.6,-79.33 1.3,23.09 2.22,41.31 -14.47,58.9 -14.31,14.9 -28.07,27.86 -31.56,49.36 12.12,4.59 16.92,-13.76 21.18,-21.56 8.96,-16.59 21.9,-30.74 34.23,-44.78 -9.61,27.36 -13.64,52.1 -34.55,74.26 -20.48,21.52 -48.1,36.81 -78.45,35.98 13.43,1.69 27.62,3.76 41.28,0.43 10.97,-9.61 21.51,-19.98 33.57,-28.55 11.85,-8.36 25.4,-14.69 35.61,-25.01 18.88,-18.99 20.24,-47.82 18.88,-72.94 -0.33,-3.83 -1.9,-33.41 -4.47,-34.17 15.76,4.54 33.35,6 47.21,15.88 14.76,10.54 23.27,28.83 33.41,43.19 20.48,29.16 47.13,53.83 77.22,73.12 12.98,8.4 25.98,15.48 40.6,20.95 12.57,4.76 27.9,9.72 33.26,23.65 12.88,33.78 -26.43,63.26 -49.91,80.19 -11.95,8.47 -23.95,16.93 -36.24,25.12 -26.16,17.58 -64.64,28.38 -68.9,64.36 -2.03,17.8 11.19,37.46 27.19,44.11 10.48,4.59 25.81,10.75 37.02,6.56 -3,11.52 -5.57,23.26 -4.71,35.6 2.24,33.58 37.67,42.48 62.51,54.28 23.11,10.91 42.97,27.34 64.59,40.56 25.6,15.51 51.93,32.92 74.84,52.19 5.69,4.64 73.4,56.4 73.4,56.4 0,0 33.35,29.66 33.79,29.98 19.93,17.58 29.11,41.71 60.16,32.87 -2.24,0.82 -0.32,14.15 -0.97,16.33 -1.49,5.57 -1.16,5.57 -6.17,8.58 -13.33,8.55 -12.72,8.78 -4.48,22.81 4.26,7.43 5.01,13.61 5.01,22.22 -0.33,21.83 9.4,31.62 26.65,43.07 22.27,15.18 45.74,32.59 70.05,43.9 -0.78,-0.38 6.17,-55.74 6.28,-61.75 0.65,-22.93 -0.23,-45.92 -6.72,-68.04 -4.59,-15.88 -10.64,-27.46 -18.62,-42.03 -11.63,-21.24 -28.07,-41.02 -36.9,-63.83 -3,-7.81 -1.81,-14.08 -1.43,-22.83 1.1,-30.89 0.88,-62.83 -14.36,-90.62 -12.17,-22.01 -20.91,-39.1 -44.81,-49.58 -28.45,-12.55 -57.44,-23.59 -86.27,-35.16 -14.08,-5.57 -28.01,-11.73 -42.31,-16.83 -25.94,-9.22 -21.34,-24.88 -6.93,-45.36 12.45,-17.64 28.66,-32.44 40.41,-50.78 11.19,-17.62 20.9,-36.31 38.71,-48.38 19.33,-13.31 42.64,-20.24 61.64,-34.38 22.38,-16.93 28.88,-40.89 37.12,-66.62 -1.92,5.79 68.24,21.79 74.31,23.98 10.97,3.54 21.79,8.34 32.66,12.72 71.3,28.49 139.98,52.07 217.17,58.79 62.96,5.68 125.97,0.99 188.86,-1.53 18.55,-0.76 21.12,22.22 29.1,34.3 12.18,18.55 22.33,32.75 22.11,56.18 -0.33,36.74 -6.39,73.98 -9.93,110.62 -2.24,23.26 -2.46,46.63 -2.46,70 -0.11,19.76 2.9,41.99 -1.25,61.47 -10.05,46.74 -58.75,73.6 -93.98,100.52 -11.29,8.95 -20.9,11.84 -35.26,9.27 -10.91,-1.9 -19.32,0.38 -29.53,4.43 -9.93,4.09 -17.41,9.93 -28.06,5.47 -10.64,-4.48 -13.86,-4.37 -24.14,0.97 -6.59,3.5 -17.24,9.78 -17.57,-2.83 -0.44,-13.22 15.46,-13.83 3.93,-28.23 -7.31,-9.19 -18.73,-14.41 -28,-21.46 -9.72,-7.26 -18.69,-15.12 -30.09,-19.66 -18.9,-7.81 -41.39,-6.66 -60.22,1.41 -17.86,7.49 -43.14,17 -39.59,41.55 3.71,24.84 35.81,28.34 50.78,42.59 8.96,8.51 12.77,21.02 22.16,29.38 25.06,22.27 66.94,21.73 96.81,35.17 13.05,5.78 26.48,15.27 41.38,14.3 16,-1.04 27.96,-14.41 40.63,-22.61 14.95,-9.88 29.52,-19.92 43.72,-30.79 13.54,-10.21 27.85,-18.29 42.87,-26.11 0,0 22.48,-11.19 37.67,-17.8 15.01,-6.49 13,-6.49 21.62,-10.37 28.16,-12.5 50.11,-28.49 70.37,-51.59l15.08 -27.31c0,0 7.42,1.92 12.11,2.9 19.34,3.83 39.59,0.99 58.26,-4.63 24.62,-7.49 47.78,-10.06 73.55,-8.52 25.16,1.53 41.6,-15.72 58.47,-32.05 21.29,-20.31 41.55,-41.93 65.14,-59.94 15.55,-11.75 27.95,-27.19 44.23,-37.99 15.6,-10.22 36.3,-14.36 44.39,-32.98 8.95,-20.59 6.83,-44.02 5.72,-65.74 -0.93,-21.84 -10.97,-38.27 -29.54,-49.51 -21.5,-12.89 -38.39,-29.48 -57.11,-46.02 -15.38,-13.5 -30.29,-27.8 -44.6,-42.31 -9.88,-10.12 -29.09,-24.41 -26.96,-40.57 1.48,-9.93 10.31,-17 16.87,-23.86 19.81,-20.69 39.96,-49.36 35.38,-79.62 -1.92,-12.33 -8.64,-19.81 -3.24,-31.06 12.62,-26.31 15.62,-48.26 15.19,-77.48 -0.65,-32.16 22.83,-64.97 35.27,-93.67 14.53,-33.48 27.73,-67.71 39.69,-102.21 12.18,-34.69 24.19,-69.24 29.2,-105.81 2.68,-20.15 10.15,-38.88 16.65,-57.93 4.97,-14.97 6.71,-37.4 19.05,-48.38 24.25,-21.19 70.49,-22.05 99.92,-18.34 11.29,1.26 19.98,6.01 30.09,10.33 18.23,7.52 37.88,6.55 56.93,10.31 20.48,4.1 38.39,17.26 59.21,20.11 14.62,2.01 19.09,-0.93 26.24,13.41 5.85,11.69 23.98,21.69 36.26,24.04 19.48,3.55 25.67,-9.02 39.74,-18.57 8.41,-5.79 20.37,-6.61 27.09,-15.18 12.62,-15.72 0.33,-36.74 7.69,-54.05 5.14,-12.34 13.44,-15.9 7.71,-31.12zm-2784.47 433.88c1.57,0.81 2.62,1.42 2.95,1.53 9.05,6.78 19.43,15.4 26.64,23.75 -17.69,7.48 -49.9,-16.49 -53.61,-34.01 -0.55,-2.74 16.76,5.18 24.02,8.72zm-5.36 49.91c-8.95,-4.49 -18.02,-9.72 -24.95,-16.72 -4.69,-4.69 -23.26,-31.71 -23.48,-31.88 7.93,11.41 30.63,22.17 42.27,30.84 15.77,11.97 36.03,22.45 49.57,35.77 -7.48,-7.33 -27.84,-10.37 -37.67,-15.13 -1.92,-0.92 -3.71,-1.8 -5.74,-2.89zm87.74 81.88l-35.6 -7.52c0,0 -1.9,1.9 -12.27,-13.07 -9.89,-14.62 -16.49,-21.17 -16.82,-21.62 15.12,15.14 45.09,18.29 63.99,27.31 9.66,4.49 17.91,13.28 26.64,19.39 -8.12,1.15 -17.57,-2.73 -25.94,-4.49zm204.54 -236.5c7.04,-10.43 13.37,-21.3 19.66,-31.77 16.91,-27.41 44.76,-29.44 73.63,-35.17 -7.74,3.83 -15.88,7.37 -23.41,11.69 -11.41,6.61 -14.31,15.94 -23.26,25.33 -7.48,7.7 -15.99,14.52 -24.41,21.29 -15.05,12.01 -30.19,23.81 -45.64,35.43 9.18,-7.79 16.71,-17.09 23.43,-26.8zm90.57 214.4c-6.44,8.45 -12.72,19.1 -20.36,26.31 -9.5,8.62 -21.02,16.76 -32.98,21.56 -25.17,10.49 -43.83,-1.26 -68.9,-1.3 8.74,0.93 21.78,-11.04 30.3,-14.08 14.75,-5.07 30.63,-4.49 45,-10.28 15.35,-6.43 29.97,-21.12 46.95,-22.21zm-132.45 -164.67c16.91,-5.18 34.82,-17.19 46.07,-25.61 -10.69,25.5 -40.45,30.97 -65.19,27.47 5.9,0.82 12.51,0 19.12,-1.86zm-30.19 239.41c-0.44,-0.05 -1,-0.22 -1.36,-0.22 -20.91,-3.21 -51.32,-10.75 -70,-21.45 0,0 -13.11,-7.43 -10.43,-7.43 28.76,0 58.42,-3.06 85.4,8.79 17.09,7.37 34.88,9.55 53.22,10.81 -15.45,7.21 -39.14,11.85 -56.83,9.5zm149.92 -18.4c-0.11,0.06 -0.21,0.21 -0.43,0.33 -9.18,6.17 -19.93,9.5 -30.59,11.85 -20.59,4.36 -42.03,4.58 -62.94,4.31 25.71,-0.99 51.43,-9.35 75.41,-18.01 13.15,-4.71 26.37,-9.89 37.56,-18.26 -7.14,5.29 -11.29,14.26 -19,19.77zm474.12 -270.46c-5.55,9.87 -4.47,24.99 -4.79,35.92 -0.33,10.69 5.24,33.14 -11.52,26.26 -1.81,-0.71 2.01,-31.4 -0.67,-36.04 -3.82,-6.44 -11.95,-6.44 -9.5,-15.12 2.68,-9.5 21.36,-10.86 28.73,-13.26 -0.86,0.16 -1.64,0.99 -2.24,2.24zm340.25 650.47c16.99,5.9 38.05,15.23 51.44,27.45 5.51,5.19 13.31,14.26 2.23,16.38 -10.59,2.2 -21.24,-10.91 -28.5,-16.09 -12.57,-9.4 -31.34,-30.26 -47.02,-34.02 6.93,1.69 14.26,3.76 21.84,6.28zm1012.83 -146.22c0.22,0.12 0.44,0.12 0.78,0.28 13.2,5.9 29.2,3.98 41.86,10.76 11.1,6.01 14.43,17.48 20.37,27.52 16.97,28.5 -3.37,46.85 -25.49,64.15 -9.89,7.76 -20.26,14.86 -30.02,22.72 -7.81,6.16 -12.95,13.76 -21.79,18.17 -6.28,2.89 -13.65,4.85 -19.83,7.42 -12.48,4.81 -26.31,3.93 -38.92,7.76 -9.4,2.9 -15.67,6.61 -19.82,15.4 -6.82,14.14 -10.87,16.22 -26.75,18.67 -18.69,2.78 -14.41,-17.84 -21.47,-27.95 -12.49,-18.41 -45.08,9.61 -48.09,-21.24 -2.35,-22.33 12.49,-44.5 18.56,-65.19 5.14,-17.47 14.3,-33.09 20.04,-50.45 6.16,-17.91 11.08,-37.73 12.98,-56.72 1.43,-13.76 -0.59,-32.16 19.55,-29.33 9.72,1.48 15.79,8.47 23.86,13.86 21.24,13.98 46.96,19.18 69.55,30.41 8.42,4.15 16.12,9.89 24.62,13.76z"/>
  <path class="fil2" d="M6467.11 3745.66c47.51,19.36 95.01,31.24 142.51,35.63 47.51,4.4 104.69,6.61 171.55,6.61l42.22 0c51.03,0 93.25,-2.21 126.68,-6.61 33.42,-4.39 60.26,-13.19 80.49,-26.39 20.23,-13.19 34.31,-30.8 42.22,-52.78 7.92,-21.99 11.88,-50.59 11.88,-85.77l0 -52.79c0,-28.15 -3.08,-51.46 -9.24,-69.93 -6.16,-18.48 -17.15,-34.75 -32.98,-48.82 -15.84,-14.07 -38.27,-26.4 -67.3,-36.95 -29.03,-10.56 -65.54,-21.99 -109.53,-34.31l-435.46 -105.57c-77.41,-22.87 -141.19,-46.63 -191.34,-71.26 -50.14,-24.63 -90.61,-55.42 -121.4,-92.37 -30.79,-36.94 -52.34,-82.25 -64.66,-135.92 -12.31,-53.66 -18.48,-119.2 -18.48,-196.62l0 -26.39c0,-186.5 53.22,-321.1 159.68,-403.79 106.44,-82.7 278.43,-124.04 515.95,-124.04l87.1 0c59.82,0 117.87,2.2 174.18,6.6 56.3,4.4 111.72,10.56 166.26,18.48 54.55,7.92 109.08,18.03 163.63,30.35 54.55,12.32 111.73,27.28 171.55,44.87l0 514.63 -348.37 0 -50.14 -234.88c-38.71,-17.59 -80.06,-28.59 -124.04,-32.98 -43.99,-4.4 -90.61,-6.61 -139.88,-6.61l-92.37 0c-82.7,0 -140.76,11.88 -174.18,35.63 -33.43,23.76 -50.14,66.42 -50.14,128.01l0 23.75c0,43.99 9.67,77.85 29.03,101.6 19.35,23.76 53.65,42.67 102.93,56.74l535.74 126.68c68.62,17.59 125.8,38.27 171.55,62.02 45.74,23.75 83.14,53.66 112.17,89.72 29.03,36.07 49.7,78.74 62.01,128.01 12.32,49.26 18.48,107.32 18.48,174.18l0 113.48c0,186.5 -53.22,321.54 -159.67,405.11 -106.44,83.58 -278.43,125.36 -515.95,125.36l-121.4 0c-65.1,0 -123.61,-2.2 -175.51,-6.6 -51.9,-4.4 -102.93,-11.88 -153.07,-22.44 -50.14,-10.56 -102.93,-23.75 -158.35,-39.59 -55.42,-15.83 -118.32,-35.19 -188.7,-58.05l0 -480.33 366.84 0 47.51 224.33zm2586.37 -892.03l-26.39 -242.8 -311.42 0 0 1145.39c33.43,3.52 70.37,7.48 110.85,11.88 40.47,4.4 76.54,9.24 108.21,14.52l0 314.06 -873.56 0 0 -314.06c31.67,-5.27 67.3,-10.12 106.89,-14.52 39.59,-4.4 75.22,-8.36 106.89,-11.88l0 -1145.39 -314.06 0 -26.4 242.8 -303.5 0 0 -604.37 1726.01 0 0 604.37 -303.5 0zm936.9 1277.34c-235.76,0 -405.99,-53.66 -510.67,-160.98 -104.69,-107.33 -157.03,-276.24 -157.03,-506.72l0 -116.13c0,-117.88 12.31,-219.49 36.94,-304.82 24.63,-85.33 63.78,-156.16 117.44,-212.46 53.66,-56.3 122.72,-98.08 207.17,-125.36 84.46,-27.27 186.5,-40.9 306.14,-40.9l102.94 0c232.24,0 398.51,55.42 498.8,166.26 100.29,110.85 150.43,283.27 150.43,517.27l0 116.13c0,230.48 -50.59,399.39 -151.76,506.72 -101.17,107.32 -266.11,160.98 -494.84,160.98l-105.57 0zm95.02 -311.41c156.59,0 234.88,-72.14 234.88,-216.42l0 -401.15c0,-151.32 -78.29,-226.97 -234.88,-226.97l-108.21 0c-154.82,0 -232.25,75.66 -232.25,226.97l0 401.15c0,144.28 77.42,216.42 232.25,216.42l108.21 0zm2346.21 -997.61l-274.47 0 -52.78 -221.68 -556.86 0 0 435.45 548.94 0 0 377.41 -548.94 0 0 343.08c15.83,1.76 38.71,3.52 68.61,5.28 29.91,1.75 61.58,3.96 95.02,6.6 33.42,2.64 65.1,5.28 95.01,7.92 29.91,2.64 52.78,4.84 68.62,6.6l0 314.06 -955.37 0 0 -314.06c31.67,-5.27 62.9,-10.12 93.69,-14.52 30.79,-4.4 62.01,-8.36 93.68,-11.88l0 -1166.5c-24.63,-3.52 -53.22,-7.04 -85.77,-10.57 -32.55,-3.52 -69.05,-8.79 -109.52,-15.83l0 -314.06 1520.16 0 0 572.69zm1992.56 -258.63c-28.15,5.27 -55.86,9.67 -83.13,13.19 -27.28,3.52 -54.1,7.04 -80.5,10.56l0 823.42c0,248.09 -54.1,430.19 -162.3,546.31 -108.21,116.13 -279.31,174.18 -513.32,174.18l-134.6 0c-239.28,0 -414.78,-58.05 -526.51,-174.18 -111.73,-116.12 -167.59,-298.22 -167.59,-546.31l0 -820.77c-33.43,-3.52 -65.98,-7.48 -97.65,-11.88 -31.67,-4.4 -63.34,-9.24 -95.01,-14.52l0 -314.06 841.89 0 0 314.06c-35.19,7.04 -69.93,12.31 -104.25,15.83 -34.31,3.53 -69.05,7.05 -104.25,10.57l0 881.47c0,89.73 24.2,161.87 72.58,216.42 48.38,54.54 117.44,81.81 207.17,81.81l97.65 0c89.72,0 158.78,-27.28 207.17,-81.81 48.39,-54.55 72.58,-126.68 72.58,-216.42l0 -886.75c-26.39,-3.52 -53.22,-7.04 -80.49,-10.56 -27.28,-3.52 -54.99,-7.04 -83.14,-10.56l0 -314.06 733.68 0 0 314.06z"/>
 </g>
</svg>
