<svg width="12" height="12" viewBox="0 0 12 12" fill="none" xmlns="http://www.w3.org/2000/svg">
<g clip-path="url(#clip0)">
<path fill-rule="evenodd" clip-rule="evenodd" d="M1.82355 4.95843C2.03458 4.7474 2.37673 4.7474 2.58776 4.95843L5.10072 7.47139L9.77516 2.79694C9.98619 2.58591 10.3283 2.58591 10.5394 2.79694C10.7504 3.00797 10.7504 3.35012 10.5394 3.56115L5.49612 8.60441C5.49186 8.60897 5.4875 8.61348 5.48305 8.61793C5.38489 8.71609 5.25837 8.76859 5.12987 8.77543C4.98195 8.78344 4.83136 8.73095 4.71836 8.61795C4.71368 8.61327 4.7091 8.60852 4.70462 8.60371L1.82355 5.72264C1.61252 5.51161 1.61252 5.16946 1.82355 4.95843Z" fill="black"/>
</g>
<defs>
<clipPath id="clip0">
<path d="M0 0H12V12H0V0Z" fill="white"/>
</clipPath>
</defs>
</svg>
