<svg width="13" height="11" viewBox="0 0 13 11" fill="none" xmlns="http://www.w3.org/2000/svg">
<path d="M0.197468 2.26584C0.404911 1.71583 0.769258 1.21967 1.25113 0.830998C1.73345 0.441966 2.31358 0.176737 2.92878 0.0640102C3.16057 0.0215341 3.3989 0 3.63713 0C4.33221 0 5.00823 0.182645 5.59207 0.528201C5.94354 0.736228 6.25229 0.997141 6.50663 1.29884C6.76089 0.99772 7.06943 0.737301 7.42053 0.529681C8.0041 0.184631 8.67965 0.00224466 9.37419 0.00224466C9.37423 0.00224466 9.37418 0.00224466 9.37421 0.00224466C9.95293 0.00224466 10.5338 0.135075 11.0537 0.386343C11.5733 0.637426 12.024 1.00274 12.3569 1.44279C12.698 1.89367 12.9058 2.39853 12.9745 2.94336C13.0347 3.4205 12.9882 3.93271 12.8364 4.46574C12.5357 5.52166 11.8702 6.4848 11.3648 7.10683C10.2659 8.4593 8.75499 9.68693 6.7457 10.8599L6.50567 11L6.26563 10.8599C3.79412 9.41711 2.06903 7.89384 0.991833 6.20302C0.372315 5.23061 0.0495892 4.36431 0.00514126 3.55464C-0.0196114 3.1034 0.0451031 2.66978 0.197468 2.26584ZM6.50564 10.0079C8.30074 8.93367 9.65643 7.81762 10.6445 6.60148C11.1012 6.03943 11.7007 5.17545 11.9639 4.2512C12.0867 3.82031 12.1251 3.41314 12.0781 3.04095C12.0271 2.63612 11.8725 2.26072 11.6186 1.92515C11.3685 1.59458 11.0292 1.31977 10.6374 1.13044C10.2454 0.941036 9.80862 0.840926 9.37419 0.840926C8.85158 0.840926 8.34356 0.977987 7.90507 1.23727C7.47766 1.49001 7.13404 1.84653 6.91141 2.26829L6.50583 3.03656L6.10096 2.26797C5.87853 1.8457 5.53493 1.48871 5.10725 1.23561C4.66851 0.97594 4.16017 0.838694 3.63713 0.838694C3.45737 0.838694 3.2778 0.8549 3.10338 0.886856C2.64232 0.971339 2.20638 1.17104 1.84271 1.46438C1.47919 1.75759 1.2048 2.13066 1.04917 2.54325C0.935732 2.844 0.887727 3.16992 0.906493 3.51194C0.943284 4.18262 1.22525 4.92312 1.76844 5.77577C2.73614 7.29468 4.2874 8.68092 6.50564 10.0079Z" fill="black"/>
</svg>
