<svg width="105" height="25" viewBox="0 0 105 25" fill="none" xmlns="http://www.w3.org/2000/svg">
<path fill-rule="evenodd" clip-rule="evenodd" d="M13.2506 9.58335V3.35609C13.2506 3.32117 13.2503 3.28625 13.2499 3.25133C13.2485 3.11157 13.2471 2.97182 13.2686 2.83206C13.3314 2.43903 13.4571 2.05474 13.6455 1.69665C13.9776 1.08528 14.4712 0.631121 15.0815 0.2905C15.1872 0.231681 15.3099 0.200371 15.4338 0.16878C15.5306 0.14408 15.6281 0.119209 15.7186 0.0808857C15.9789 -0.015187 16.2392 -0.00645208 16.4994 0.0110157C16.7059 0.0197496 16.9123 0.0546848 17.1097 0.115822C17.3071 0.176959 17.4866 0.264298 17.6661 0.360371C18.0161 0.543782 18.3123 0.797064 18.5726 1.08528C18.8867 1.4259 19.0931 1.8364 19.2546 2.26436C19.3175 2.4303 19.3533 2.61371 19.3623 2.78839C19.3892 3.39103 19.3982 3.98493 19.4072 4.58757V15.4001C19.4072 15.9416 19.3982 16.4744 19.3533 17.0072C19.3354 17.2604 19.3085 17.5137 19.2098 17.7583C19.1651 17.8669 19.1451 17.9756 19.1242 18.0893L19.1242 18.0893C19.12 18.1127 19.1156 18.1362 19.111 18.16C18.9674 18.85 18.6803 19.4876 18.3302 20.0989C18.1328 20.4483 17.9084 20.7977 17.6751 21.1295C17.4238 21.4789 17.1366 21.802 16.8225 22.1077C16.5084 22.4222 16.1764 22.7104 15.8263 22.9811C15.5661 23.182 15.2879 23.3654 15.0007 23.5226L15.0006 23.5227C14.5968 23.7497 14.1929 23.9768 13.7712 24.1689C13.5522 24.2695 13.321 24.3461 13.0885 24.423C12.9779 24.4596 12.867 24.4963 12.757 24.5358C12.5596 24.6056 12.3532 24.6668 12.1468 24.7192C12.0313 24.7491 11.9091 24.7727 11.7917 24.7953L11.7339 24.8065C11.5006 24.8414 11.2673 24.8764 11.0339 24.9026C10.9517 24.9167 10.8694 24.9283 10.7858 24.9401C10.7143 24.9501 10.6417 24.9604 10.5672 24.9725C10.5044 24.9812 10.4416 24.9899 10.3788 24.9899C10.2508 24.9899 10.1229 24.9909 9.99467 24.9918H9.99445H9.99421H9.99399H9.99376H9.99353H9.99338C9.73517 24.9938 9.47562 24.9957 9.21208 24.9899C9.09294 24.9899 8.97739 24.9725 8.86315 24.9552C8.79668 24.9452 8.73066 24.9352 8.66463 24.9288C8.64668 24.9288 8.62873 24.9266 8.61078 24.9244C8.59283 24.9222 8.57488 24.92 8.55693 24.92C8.46058 24.9083 8.3622 24.9005 8.2635 24.8927C8.06802 24.8772 7.87127 24.8617 7.6864 24.8152C7.57708 24.7877 7.46775 24.7618 7.35874 24.7361L7.35866 24.7361L7.35862 24.7361C6.98442 24.6478 6.61386 24.5603 6.25944 24.4047C6.11136 24.3392 5.95655 24.2803 5.80174 24.2213C5.64693 24.1624 5.49212 24.1034 5.34404 24.0379C4.90428 23.8458 4.49145 23.6012 4.08759 23.3392C3.72861 23.0947 3.3786 22.8326 3.05552 22.5532C2.58884 22.1514 2.18498 21.706 1.80805 21.2256C1.44009 20.754 1.12598 20.2474 0.865719 19.7147C0.704177 19.3828 0.569563 19.0334 0.443919 18.6841C0.346981 18.401 0.282095 18.118 0.21629 17.831C0.196803 17.746 0.177235 17.6607 0.156731 17.5749C-0.0137859 16.8499 -0.0137892 16.125 0.0131345 15.3914C0.0221091 15.1556 0.0490328 14.9198 0.10288 14.6839C0.201601 14.256 0.318275 13.8368 0.443919 13.4175C0.497766 13.2254 0.569558 13.0332 0.641355 12.8498C0.731101 12.6227 0.829825 12.3957 0.93752 12.1686C1.10804 11.8018 1.32343 11.4611 1.54779 11.138C1.72728 10.8847 1.91575 10.6314 2.12216 10.3956C2.36447 10.1074 2.62474 9.84536 2.89398 9.59208C3.01795 9.47718 3.15357 9.37362 3.29062 9.26896L3.29064 9.26895L3.29065 9.26894C3.36194 9.2145 3.43362 9.15977 3.50425 9.10299C3.84528 8.83224 4.21324 8.60515 4.59915 8.40428C4.92223 8.23833 5.24532 8.07239 5.6043 7.96758C5.78811 7.91136 5.96578 7.84318 6.14269 7.77528L6.14271 7.77527L6.14273 7.77527L6.14275 7.77526L6.14277 7.77525L6.14279 7.77525C6.26817 7.72713 6.39316 7.67916 6.5197 7.63569C6.6072 7.60294 6.69471 7.58493 6.78221 7.56692C6.81138 7.56091 6.84055 7.55491 6.86971 7.54835C6.93205 7.53732 6.99439 7.52716 7.05645 7.51705C7.19094 7.49513 7.3241 7.47343 7.45306 7.44355C7.7223 7.37368 8.00051 7.35621 8.27872 7.33874C8.35575 7.33193 8.43279 7.32245 8.51035 7.31291C8.63159 7.298 8.75414 7.28293 8.88002 7.2776L8.89303 7.27727C9.22951 7.26865 9.55745 7.26025 9.89415 7.26887C10.7826 7.28634 11.5185 7.64443 12.1288 8.26453C12.416 8.56149 12.6045 8.91084 12.7391 9.2864C12.8737 9.67942 12.9096 10.0986 12.8378 10.5004C12.7391 11.0768 12.4788 11.5834 12.057 12.0114C11.7339 12.3345 11.357 12.5616 10.9352 12.7363C10.849 12.773 10.7532 12.7908 10.6573 12.8086L10.6573 12.8086C10.5934 12.8205 10.5295 12.8324 10.4685 12.8498C10.1342 12.9455 9.79513 12.9527 9.45825 12.9598H9.45822C9.33388 12.9624 9.20983 12.965 9.08644 12.9721C8.48514 13.007 7.91974 13.173 7.42614 13.5049C7.01331 13.7756 6.69022 14.1337 6.48381 14.5791C6.31329 14.9634 6.19662 15.3564 6.20559 15.7844V16.1425C6.18764 16.7189 6.38508 17.243 6.69919 17.7233C7.00433 18.1862 7.39921 18.5705 7.91076 18.8325C8.17103 18.9635 8.44027 19.0771 8.72745 19.1557C9.09541 19.2605 9.46336 19.3129 9.8403 19.3042C10.1365 19.2954 10.4147 19.2343 10.7019 19.1644C11.0878 19.0771 11.4288 18.9024 11.7609 18.7103C12.0121 18.5618 12.2275 18.3522 12.425 18.1338C12.5955 17.9504 12.7391 17.7495 12.8647 17.5312C13.1519 17.0334 13.2776 16.5006 13.2776 15.9329V9.91524C13.2506 9.8017 13.2506 9.69689 13.2506 9.58335ZM40.8923 9.84537V3.5133V3.51307C40.8923 3.32973 40.8923 3.1464 40.9013 2.9718C40.9103 2.4827 41.0898 2.04601 41.3321 1.61805C41.5744 1.19009 41.9065 0.840734 42.3013 0.552516C42.5347 0.386572 42.786 0.255564 43.0642 0.159491C43.4411 0.0284829 43.827 -0.0239201 44.2129 0.0110154C44.4822 0.037217 44.7514 0.107087 45.0117 0.211894C45.5322 0.421507 45.954 0.779597 46.295 1.20756C46.5373 1.51324 46.7348 1.84513 46.8604 2.22069C46.9771 2.57878 47.0309 2.92813 47.022 3.30369V3.30902C47.022 7.49077 47.022 11.6725 47.013 15.863C47.013 16.1774 47.0489 16.4831 47.1207 16.7713C47.2374 17.2342 47.4617 17.6535 47.7848 18.0203C48.1079 18.3958 48.4848 18.6841 48.9246 18.9111C49.113 19.0072 49.3105 19.0683 49.5169 19.1295C49.6467 19.1656 49.7808 19.1934 49.9162 19.2215L49.9164 19.2215L49.9165 19.2215L49.9167 19.2216C49.9777 19.2342 50.039 19.2469 50.1002 19.2605C50.549 19.3566 51.0067 19.3129 51.4464 19.2081C51.9939 19.0771 52.4964 18.8413 52.9272 18.4832C53.358 18.1338 53.6901 17.7059 53.9054 17.1993C54.2016 16.4918 54.2106 15.7582 54.0042 15.0246C53.8157 14.3608 53.4388 13.828 52.8195 13.4612C52.4964 13.269 52.1464 13.1293 51.7785 13.042C51.6152 12.9986 51.4396 12.9852 51.267 12.9719L51.2668 12.9719C51.2308 12.9691 51.1949 12.9664 51.1592 12.9634C51.0246 12.9546 50.8877 12.9503 50.7509 12.9459C50.614 12.9415 50.4772 12.9372 50.3426 12.9284C49.8669 12.8935 49.4182 12.7712 48.9964 12.5441C48.3143 12.186 47.8566 11.6533 47.5963 10.9458C47.4438 10.5353 47.3989 10.1074 47.4707 9.68815C47.5335 9.3126 47.6681 8.95451 47.8925 8.63135C48.1797 8.19466 48.5566 7.87151 49.0053 7.62696C49.2566 7.48722 49.5438 7.39988 49.831 7.33001C50.1272 7.26014 50.4143 7.2514 50.7015 7.26014C50.8183 7.26232 50.935 7.26123 51.0515 7.26014C51.4011 7.25686 51.7494 7.2536 52.0926 7.33874C52.1195 7.34748 52.1464 7.34748 52.1823 7.34748C52.5144 7.34748 52.8285 7.42608 53.1426 7.50468C53.2433 7.53408 53.3496 7.54973 53.4568 7.56552C53.5408 7.57788 53.6253 7.59032 53.708 7.60949C53.8494 7.64224 53.9907 7.68973 54.132 7.73722C54.1792 7.75305 54.2263 7.76888 54.2734 7.78417C54.758 7.95885 55.2337 8.15099 55.6824 8.38681C56.0593 8.58769 56.4273 8.80603 56.7683 9.06805C57.2799 9.45234 57.7735 9.86283 58.1684 10.3694C58.2116 10.4243 58.2553 10.4792 58.299 10.5342C58.4639 10.7416 58.6297 10.9502 58.7786 11.1642C58.9671 11.4349 59.1286 11.7231 59.2901 12.0112L59.2902 12.0114C59.4158 12.2384 59.5145 12.4742 59.6132 12.71L59.6133 12.7101C59.703 12.9197 59.7838 13.1293 59.8556 13.3477C59.9453 13.6184 60.0261 13.8804 60.0979 14.1599C60.1428 14.3171 60.1787 14.4831 60.1966 14.6403L60.2102 14.7563C60.2691 15.2591 60.328 15.762 60.2864 16.2648L60.2864 16.265C60.2594 16.6405 60.2325 17.016 60.1876 17.3827C60.1708 17.5028 60.1365 17.6229 60.1021 17.743L60.1021 17.743L60.1021 17.7431L60.1021 17.7431L60.1021 17.7431C60.0815 17.8151 60.0609 17.8871 60.0441 17.9591C60.0261 18.029 60.0104 18.0989 59.9947 18.1687C59.979 18.2386 59.9633 18.3085 59.9453 18.3784C59.9335 18.4196 59.9219 18.4608 59.9104 18.502L59.9103 18.5025C59.8608 18.6792 59.8116 18.8548 59.7389 19.0247C59.5504 19.4439 59.353 19.8544 59.1287 20.2562C58.9492 20.5968 58.7338 20.9199 58.4825 21.2169C58.3849 21.3264 58.292 21.4391 58.1993 21.5516C58.0702 21.7081 57.9414 21.8643 57.8004 22.0117C57.6688 22.1514 57.5213 22.2833 57.3738 22.4152L57.3737 22.4152L57.3737 22.4153L57.3737 22.4153L57.3736 22.4153L57.3736 22.4154C57.2998 22.4814 57.226 22.5473 57.1542 22.6143C56.7414 22.9811 56.2837 23.3043 55.7991 23.575C55.4939 23.7497 55.1888 23.9156 54.8747 24.0729C54.6324 24.1864 54.3811 24.2825 54.1298 24.3611C53.7708 24.4834 53.4029 24.6056 53.0349 24.7104C52.9093 24.7541 52.7747 24.7803 52.64 24.7978C52.3977 24.8327 52.1464 24.8676 51.8951 24.8938C51.8278 24.9026 51.7605 24.9135 51.6932 24.9244C51.6259 24.9353 51.5586 24.9462 51.4913 24.955C51.4285 24.9637 51.3656 24.9725 51.3028 24.9725C51.1649 24.9725 51.0279 24.9734 50.8913 24.9744C50.6191 24.9763 50.3482 24.9783 50.0733 24.9725C49.9441 24.9725 49.8149 24.9501 49.6856 24.9277C49.6533 24.9221 49.621 24.9166 49.5887 24.9113C49.5259 24.9026 49.463 24.8938 49.4002 24.8938C49.1247 24.8868 48.8609 24.8341 48.5994 24.7819C48.5372 24.7695 48.4751 24.7571 48.413 24.7454C48.054 24.6755 47.713 24.5707 47.363 24.4571C46.9861 24.3349 46.6271 24.1951 46.2681 24.0292C45.586 23.7235 44.9758 23.3305 44.3745 22.8938C43.9347 22.5706 43.5398 22.1863 43.1719 21.7933C42.8129 21.409 42.4719 20.9898 42.2116 20.5269C42.146 20.4072 42.0779 20.2883 42.0099 20.1695L42.0097 20.1692C41.8543 19.898 41.6992 19.6271 41.5744 19.3478C41.368 18.8849 41.2064 18.4046 41.0988 17.9067L41.0707 17.7783L41.0706 17.778L41.0706 17.778C41.0173 17.5347 40.9651 17.2959 40.9193 17.0508C40.9057 16.9914 40.9075 16.9321 40.9092 16.8765V16.8764L40.9092 16.876C40.9098 16.8581 40.9103 16.8407 40.9103 16.8237C40.9058 15.8663 40.9035 14.9088 40.9013 13.9503L40.9013 13.947L40.9013 13.9437L40.9013 13.9405L40.9013 13.9373L40.9012 13.934C40.899 12.9831 40.8968 12.031 40.8923 11.0768V9.84537ZM74.5579 17.5561V17.5571V17.558V17.559V17.56C74.5569 17.8683 74.5559 18.1762 74.5559 18.4832C74.5559 19.3042 74.556 20.1164 74.5739 20.9287C74.5739 21.4702 74.5739 22.0029 74.7713 22.5182C74.906 22.8676 75.0675 23.1907 75.2919 23.4964C75.4714 23.741 75.6868 23.9419 75.9201 24.1427C76.3957 24.5445 76.9432 24.7454 77.5535 24.789C77.8765 24.8152 78.1996 24.7628 78.5137 24.6493C78.9535 24.4921 79.3304 24.2563 79.6535 23.9419C80.0843 23.5139 80.3984 22.9899 80.5869 22.4134L80.6025 22.3684C80.6348 22.2765 80.6689 22.179 80.6766 22.0815C80.6821 22.0299 80.6877 21.978 80.6934 21.9259C80.7251 21.6349 80.7574 21.3385 80.7574 21.0422C80.7634 20.0407 80.7614 19.0392 80.7594 18.0378C80.7584 17.537 80.7574 17.0363 80.7574 16.5355C80.7574 16.1076 80.7394 15.6709 80.7215 15.2429C80.7125 14.9984 80.7036 14.7538 80.6856 14.5093C80.6856 14.4569 80.6856 14.4045 80.6766 14.3608C80.6318 14.125 80.5779 13.8804 80.5241 13.6359C80.5121 13.5776 80.5021 13.5184 80.4921 13.4592C80.4722 13.3408 80.4523 13.2225 80.4164 13.1118C80.3402 12.8627 80.2481 12.6187 80.1565 12.376L80.1561 12.3752C80.129 12.3033 80.1019 12.2316 80.0753 12.1598C79.9048 11.6795 79.6625 11.2166 79.3933 10.7799C79.0881 10.2908 78.7471 9.8279 78.3612 9.39121C77.9753 8.94578 77.5535 8.55275 77.0868 8.19466C76.5663 7.80164 76.0188 7.45229 75.4265 7.16407C74.9239 6.91952 74.4124 6.70117 73.8739 6.5527C73.8111 6.53523 73.7505 6.51776 73.6899 6.50029C73.6293 6.48282 73.5687 6.46536 73.5059 6.44789C73.457 6.43399 73.4089 6.41919 73.3613 6.40451C73.1994 6.35463 73.0421 6.30616 72.8687 6.29941C72.8499 6.29483 72.8286 6.29265 72.8061 6.29035C72.7857 6.28827 72.7644 6.28609 72.7431 6.28194C72.6688 6.26839 72.594 6.25309 72.5187 6.2377C72.3027 6.19356 72.0832 6.14868 71.8636 6.1422C70.8494 6.10727 69.8443 6.10727 68.8481 6.36928C68.7532 6.39425 68.6583 6.41708 68.5638 6.4398C68.3277 6.49657 68.0942 6.55271 67.8699 6.64003C67.7533 6.68656 67.6358 6.73115 67.5183 6.77574L67.5179 6.77588C67.2826 6.86517 67.0472 6.95445 66.8198 7.05926C66.3891 7.26014 65.9673 7.46975 65.5903 7.74924C65.4701 7.83951 65.3472 7.92594 65.2242 8.01245C65.0259 8.15193 64.8273 8.29162 64.639 8.44795C64.2172 8.7973 63.8223 9.18159 63.4903 9.60955C63.248 9.92397 63.0146 10.2471 62.7902 10.5703C62.539 10.9196 62.3505 11.3039 62.171 11.697C61.9736 12.1249 61.803 12.5616 61.6774 13.0158C61.5966 13.3302 61.5159 13.6446 61.462 13.9678C61.3902 14.3783 61.3274 14.7887 61.3184 15.208C61.3005 15.6534 61.3094 16.0988 61.3723 16.5443C61.3802 16.5996 61.3879 16.6547 61.3956 16.7097C61.4403 17.0279 61.4842 17.3407 61.5607 17.6535C61.7043 18.2386 61.8928 18.8063 62.1351 19.3566C62.2787 19.6797 62.4313 19.9941 62.6108 20.2998C62.7992 20.6404 63.0325 20.9548 63.2658 21.2692L63.2659 21.2693C63.4903 21.5662 63.7326 21.8457 63.9928 22.1077C64.3249 22.4484 64.6839 22.7628 65.0877 23.0248C65.1754 23.0816 65.2622 23.14 65.3489 23.1983L65.349 23.1984L65.3491 23.1984L65.3492 23.1985L65.3495 23.1987C65.5558 23.3374 65.7616 23.4758 65.9762 23.5925C66.2042 23.7184 66.4448 23.8237 66.6836 23.9283L66.6842 23.9285C66.7931 23.9762 66.9016 24.0237 67.0083 24.0729C67.3467 24.226 67.7128 24.3255 68.0761 24.4242C68.1271 24.4381 68.178 24.4519 68.2289 24.4659C68.3815 24.5111 68.5439 24.542 68.7053 24.5727C68.7621 24.5835 68.8189 24.5943 68.875 24.6056C68.9423 24.6166 69.0096 24.628 69.077 24.6395C69.2789 24.6739 69.4808 24.7083 69.6827 24.7279C70.0507 24.7628 70.4097 24.7803 70.7776 24.789C71.1725 24.7978 71.5495 24.7628 71.9354 24.6406C72.2046 24.562 72.4649 24.4572 72.6982 24.3174C73.1469 24.0467 73.5149 23.6973 73.7662 23.2431C73.9906 22.8327 74.1521 22.3872 74.1431 21.9069L74.1401 21.8115V21.8114C74.1332 21.5831 74.1265 21.3607 74.0713 21.1383C74.0175 20.8937 73.9457 20.6579 73.829 20.4396C73.5687 19.933 73.1918 19.5312 72.6892 19.2343C72.2226 18.9548 71.729 18.7889 71.1815 18.7801C71.1362 18.7801 71.0915 18.7807 71.0472 18.7812C70.9159 18.7829 70.7885 18.7845 70.661 18.7714C70.3289 18.7452 69.9969 18.7103 69.6738 18.6229C69.3597 18.5356 69.0725 18.4133 68.8032 18.2474C68.4173 18.0115 68.1212 17.7059 67.9058 17.3216C67.7981 17.1294 67.7083 16.9373 67.6455 16.7189L67.6285 16.6601C67.5703 16.4598 67.5101 16.2524 67.5019 16.0377V16.0375C67.4929 15.758 67.484 15.4786 67.5019 15.1992C67.5109 14.9984 67.5378 14.78 67.6006 14.5879C67.7083 14.2298 67.8699 13.8717 68.1122 13.5747L68.1787 13.4927L68.1788 13.4926C68.3636 13.2642 68.553 13.0301 68.7853 12.8586C69.3058 12.4655 69.8981 12.2035 70.5802 12.1424C71.2354 12.09 71.8725 12.1511 72.4738 12.4219C72.8867 12.614 73.2546 12.8586 73.5687 13.1904C73.7482 13.3739 73.9008 13.566 74.0354 13.7756C74.2598 14.1162 74.4034 14.4918 74.4842 14.8848C74.538 15.1468 74.5559 15.4263 74.5559 15.6971C74.5619 16.3146 74.5599 16.936 74.5579 17.5561ZM30.2305 6.13347C30.2995 6.13347 30.3691 6.13206 30.4391 6.13064C30.6151 6.12707 30.7931 6.12345 30.9665 6.1422C31.2985 6.17714 31.6306 6.22954 31.9537 6.28195C32.0814 6.2989 32.2054 6.32316 32.3305 6.34764C32.3987 6.361 32.4673 6.37442 32.537 6.38675C32.6716 6.41295 32.7973 6.43916 32.9319 6.48283C32.9844 6.49941 33.037 6.51578 33.0895 6.53214C33.3688 6.61913 33.6471 6.70582 33.9191 6.82345C34.4127 7.04179 34.9063 7.26887 35.364 7.54836C35.9743 7.92392 36.5307 8.35188 37.0512 8.84098C37.4012 9.17286 37.7064 9.53095 38.0025 9.90651C38.2628 10.2384 38.4961 10.5965 38.7025 10.9633C38.9808 11.4699 39.25 11.9764 39.4205 12.5354C39.4513 12.6364 39.4869 12.7374 39.5226 12.8384L39.5227 12.8386C39.5703 12.9734 39.618 13.1081 39.6539 13.2429C39.6845 13.352 39.7035 13.464 39.7224 13.5756V13.5757C39.7368 13.6605 39.7511 13.7451 39.7705 13.828C39.7998 13.9564 39.8132 14.0874 39.8265 14.2182L39.8265 14.2183L39.8265 14.2184L39.8266 14.2185L39.8266 14.2185C39.8377 14.3278 39.8488 14.4369 39.8692 14.5442C39.941 14.911 39.941 15.2779 39.9321 15.6534C39.9231 16.0814 39.9051 16.5181 39.8334 16.946C39.8235 17.0058 39.8164 17.0668 39.8092 17.1284C39.7901 17.2921 39.7704 17.4599 39.6987 17.6185C39.6557 17.7076 39.6417 17.8061 39.6276 17.9046V17.9047C39.6183 17.9703 39.609 18.036 39.591 18.0989L39.591 18.0989C39.5372 18.2998 39.4833 18.5007 39.4026 18.6841C39.2769 19.0072 39.1423 19.3216 38.9808 19.6361C38.6846 20.23 38.3346 20.7977 37.9218 21.3217C37.5448 21.7933 37.123 22.2388 36.6563 22.6318C36.4662 22.7896 36.2622 22.9338 36.0594 23.0772L36.0594 23.0772L36.0594 23.0772L36.0593 23.0773C35.9366 23.164 35.8144 23.2504 35.6961 23.3392C35.3012 23.6362 34.8614 23.8633 34.4127 24.0729C33.9101 24.3087 33.3896 24.5183 32.8421 24.6406C32.7434 24.6624 32.6447 24.6908 32.546 24.7192C32.4473 24.7476 32.3485 24.776 32.2498 24.7978C32.0703 24.8415 31.8819 24.8764 31.7024 24.8939C31.3165 24.9375 30.9395 24.9725 30.5536 24.9899C30.3142 25.0072 30.0747 24.9989 29.8266 24.9902L29.8177 24.9899C29.7886 24.9899 29.7596 24.9903 29.7306 24.9908C29.5715 24.993 29.4145 24.9953 29.2703 24.9288C29.2432 24.9183 29.2129 24.9173 29.1813 24.9162C29.1605 24.9155 29.1391 24.9148 29.1177 24.9113C29.026 24.8998 28.9343 24.8911 28.8429 24.8825L28.8428 24.8825C28.657 24.8649 28.4725 24.8475 28.292 24.8065C27.8612 24.7104 27.4305 24.5969 27.0176 24.4572C26.5779 24.3087 26.1471 24.134 25.7433 23.9244C25.495 23.8007 25.2631 23.6491 25.0337 23.4992C24.9231 23.4269 24.8131 23.355 24.7022 23.2868C24.3073 23.0423 23.9573 22.7541 23.6252 22.4484C23.489 22.326 23.362 22.1917 23.2352 22.0577L23.2352 22.0577L23.2351 22.0577L23.2351 22.0576C23.1447 21.9621 23.0545 21.8667 22.9611 21.7759C22.7489 21.5693 22.5736 21.3314 22.3988 21.0943C22.3296 21.0004 22.2605 20.9067 22.1893 20.8151C22.1085 20.7016 22.0278 20.5881 21.956 20.4745C21.597 19.8893 21.2829 19.278 21.0585 18.6317C20.879 18.0902 20.7354 17.5399 20.6457 16.9722C20.6104 16.7713 20.6006 16.5731 20.5909 16.3761V16.3761V16.3761V16.3761L20.5908 16.376L20.5908 16.3759C20.5832 16.2219 20.5756 16.0687 20.5559 15.9154C20.52 15.5952 20.54 15.2749 20.5599 14.9547L20.5599 14.9546C20.5699 14.7945 20.5799 14.6344 20.5829 14.4743C20.5829 14.2822 20.6305 14.0842 20.6773 13.8899C20.6879 13.8458 20.6985 13.8018 20.7085 13.7582C20.7444 13.566 20.7803 13.3739 20.8431 13.1905C21.0136 12.6489 21.1842 12.1074 21.4444 11.5922C21.4786 11.5256 21.5122 11.4584 21.5458 11.391L21.5458 11.391L21.5458 11.391L21.5458 11.3909L21.5458 11.3909L21.5458 11.3909L21.5458 11.3908C21.6356 11.2109 21.7259 11.0301 21.8303 10.8585C22.0367 10.5266 22.2521 10.2035 22.4855 9.88904C22.7996 9.47855 23.1406 9.08552 23.5355 8.7449C23.8047 8.50909 24.074 8.27327 24.3612 8.06366C24.6842 7.82784 25.0163 7.60076 25.3663 7.39988C25.642 7.24205 25.9397 7.10561 26.2329 6.97123L26.3266 6.92825C26.5783 6.81342 26.8438 6.71201 27.105 6.61226L27.2151 6.57017C27.3138 6.53523 27.4215 6.50029 27.5202 6.48283C27.601 6.46536 27.684 6.44789 27.767 6.43042C27.85 6.41295 27.933 6.39549 28.0138 6.37802C28.2202 6.33435 28.4266 6.28194 28.6241 6.22954C28.651 6.22081 28.6779 6.22081 28.7048 6.22081H28.7049C28.9651 6.19897 29.2254 6.17932 29.4857 6.15967C29.7459 6.14002 30.0062 6.12037 30.2664 6.09853C30.2305 6.116 30.2305 6.12474 30.2305 6.13347ZM33.7486 15.5573C33.7486 13.6359 32.2139 12.0987 30.1946 12.0987C28.2202 12.0987 26.6676 13.6097 26.6497 15.5399C26.6407 17.4264 28.2023 18.9985 30.2126 18.9985C32.187 18.9985 33.7665 17.4264 33.7486 15.5573ZM104.996 21.278C104.997 21.115 104.998 20.952 104.998 20.7889C104.998 20.7387 104.998 20.6884 104.998 20.6381C104.998 20.5927 104.998 20.5473 104.998 20.5018L104.999 20.401C105.001 20.013 105.002 19.625 104.989 19.2518C104.982 19.0393 104.953 18.8323 104.923 18.6222C104.915 18.5645 104.907 18.5066 104.899 18.4482C104.89 18.4482 104.89 18.4395 104.89 18.4308L104.843 18.3062L104.843 18.3061C104.741 18.0401 104.638 17.7693 104.522 17.505C104.307 17.0246 103.984 16.6054 103.598 16.2298C103.158 15.8019 102.655 15.4613 102.09 15.2254C101.83 15.1206 101.56 15.0158 101.273 14.946C101.031 14.8848 100.78 14.8324 100.528 14.8149C99.8912 14.78 99.245 14.7713 98.6168 14.9547C98.3745 15.0158 98.1412 15.0944 97.9168 15.1905C97.4411 15.3914 97.0014 15.6447 96.6065 15.9853C96.2386 16.291 95.9244 16.6403 95.6642 17.0246C95.4039 17.4264 95.2065 17.8631 95.0808 18.326C94.9372 18.8413 94.9013 19.3653 94.9462 19.8981C94.9821 20.3784 95.1167 20.8326 95.3052 21.278C95.4847 21.706 95.727 22.1077 96.0501 22.4658C96.3103 22.754 96.5796 23.0073 96.9027 23.2169C97.2168 23.4178 97.5488 23.6012 97.9078 23.7235C98.0399 23.7682 98.1757 23.8058 98.3105 23.8431C98.3863 23.864 98.4617 23.8849 98.536 23.9069C98.7463 23.9654 98.9629 23.9933 99.1805 24.0213C99.223 24.0268 99.2654 24.0322 99.3079 24.0379C99.4411 24.0579 99.5802 24.055 99.7201 24.0522C99.8252 24.0501 99.9308 24.0479 100.035 24.0554C100.232 24.0641 100.412 24.0117 100.573 23.9419C101.058 23.7497 101.399 23.4091 101.534 22.9025C101.704 22.2387 101.363 21.5662 100.726 21.2431C100.448 21.1033 100.151 21.0509 99.8373 21.0684C99.5681 21.0859 99.3078 21.0073 99.0566 20.9112C98.5719 20.7278 98.2758 20.3872 98.186 19.8981C98.0873 19.3653 98.1412 18.8675 98.5181 18.422C98.8591 18.0115 99.2989 17.8019 99.8284 17.7583C100.044 17.7408 100.25 17.7583 100.466 17.8194C100.708 17.8893 100.932 17.9853 101.121 18.1338C101.551 18.4832 101.794 18.9199 101.785 19.4876C101.773 20.1051 101.777 20.7265 101.781 21.3466V21.3476C101.783 21.6568 101.785 21.9657 101.785 22.2737C101.785 22.5182 101.839 22.754 101.937 22.9811C102.135 23.4615 102.458 23.8108 102.987 23.9768C103.418 24.1078 103.822 24.0554 104.181 23.8108C104.728 23.4353 105.016 22.92 104.998 22.2562C104.992 21.9301 104.994 21.6041 104.996 21.278ZM90.9076 17.8805V16.3084C90.9076 15.8717 91.114 15.5311 91.4102 15.2254C91.6076 15.0246 91.8499 14.8586 92.1192 14.7975C92.3615 14.7451 92.6307 14.7276 92.882 14.8237L92.9313 14.8441C93.0423 14.89 93.1574 14.9376 93.2589 14.9984C93.7435 15.2953 94.0128 15.7233 94.0577 16.2735C94.0756 16.4307 94.0936 16.5967 94.0936 16.7539C94.1025 17.2255 94.1025 17.6884 94.0936 18.16V18.1607C94.0846 18.964 94.0756 19.7673 94.0397 20.5706C94.0218 20.9636 93.95 21.3654 93.8423 21.7409C93.6897 22.2911 93.3935 22.7802 92.9358 23.1558C92.7115 23.3305 92.4781 23.4877 92.2089 23.5838C91.9487 23.6798 91.6884 23.7759 91.4281 23.837C91.1858 23.8982 90.9345 23.9244 90.6922 23.9418C90.4679 23.9681 90.2345 23.9855 90.0102 23.9768C89.5614 23.9681 89.1217 23.9593 88.6819 23.9331C88.5146 23.9195 88.3472 23.8743 88.1841 23.8303C88.158 23.8232 88.132 23.8162 88.106 23.8093C88.0855 23.8039 88.0651 23.7985 88.0447 23.7934C87.9281 23.7672 87.8115 23.7322 87.6948 23.6973L87.6947 23.6973C87.1204 23.5314 86.6357 23.2169 86.2588 22.7802C86.0524 22.5357 85.9088 22.2387 85.7922 21.9331C85.7281 21.7652 85.6938 21.5947 85.6596 21.4245L85.6595 21.4245C85.6314 21.2847 85.6033 21.1451 85.5588 21.0073C85.5498 20.9723 85.5498 20.9199 85.5498 20.885C85.5453 20.7911 85.5403 20.6973 85.5352 20.6034C85.5201 20.3217 85.505 20.04 85.505 19.7583C85.487 18.7015 85.4691 17.636 85.478 16.5792C85.478 16.0901 85.6216 15.6447 85.9716 15.2691C86.1601 15.077 86.3755 14.9372 86.6358 14.8411C86.8781 14.7451 87.1204 14.7451 87.3537 14.7887C87.7486 14.8586 88.0627 15.077 88.314 15.3914C88.6012 15.7582 88.6999 16.1687 88.6909 16.6229C88.6849 17.2627 88.6869 17.8987 88.6889 18.5359V18.5369C88.6899 18.8561 88.6909 19.1757 88.6909 19.4963C88.6909 19.7933 88.7448 20.0727 88.8614 20.3435C89.014 20.6841 89.2653 20.9112 89.6691 20.9025H89.8666C90.3961 20.9374 90.7281 20.5182 90.8089 20.1601C90.8807 19.8631 90.9345 19.5662 90.9256 19.2518C90.904 18.8814 90.9055 18.5167 90.9069 18.1531V18.1529C90.9072 18.0621 90.9076 17.9713 90.9076 17.8805ZM84.7421 21.7409C84.3921 21.278 83.9255 21.0247 83.2883 21.0509C83.019 21.0247 82.7408 21.0859 82.4895 21.2169C82.31 21.3217 82.1575 21.4614 82.0139 21.6012C81.5562 22.0728 81.4215 22.8239 81.7356 23.444C82.0677 24.0991 82.6331 24.396 83.3511 24.431C83.554 24.4392 83.749 24.3699 83.936 24.3034C83.9475 24.2993 83.9589 24.2952 83.9703 24.2912C84.5896 24.0729 84.9216 23.61 85.0473 23.0161C85.146 22.5619 85.0293 22.1252 84.7421 21.7409Z" fill="white"/>
</svg>
