<svg width="11" height="12" viewBox="0 0 11 12" fill="none" xmlns="http://www.w3.org/2000/svg">
<path d="M10.5288 0.666992H1.11708C0.857204 0.666992 0.646484 0.877684 0.646484 1.13759V10.863C0.646484 11.1229 0.857176 11.3336 1.11708 11.3336H10.5288C10.7887 11.3336 10.9994 11.1229 10.9994 10.863V1.13756C10.9994 0.877684 10.7887 0.666992 10.5288 0.666992ZM10.0582 4.43168H8.64649C8.38661 4.43168 8.17589 4.64237 8.17589 4.90228C8.17589 5.16218 8.38658 5.37287 8.64649 5.37287H10.0582V10.3925H4.09746V8.98071C4.09746 8.72083 3.88677 8.51011 3.62686 8.51011C3.36696 8.51011 3.15627 8.7208 3.15627 8.98071V10.3925H1.58765V1.60816H3.15627V6.78461C3.15627 7.04448 3.36696 7.2552 3.62686 7.2552C3.88677 7.2552 4.09746 7.04451 4.09746 6.78461V5.37285H6.45039C6.71026 5.37285 6.92098 5.16215 6.92098 4.90225C6.92098 4.64234 6.71029 4.43165 6.45039 4.43165H4.09746V1.60816H10.0582L10.0582 4.43168Z" fill="#2C2C2C"/>
</svg>
