<svg width="68" height="12" viewBox="0 0 68 12" fill="none" xmlns="http://www.w3.org/2000/svg">
<path d="M62 0L63.7103 3.64593L67.7063 4.1459L64.7674 6.89918L65.5267 10.8541L62 8.9098L58.4733 10.8541L59.2326 6.89918L56.2937 4.1459L60.2897 3.64593L62 0Z" fill="#51C8ED"/>
<path d="M48 0L49.7103 3.64593L53.7063 4.1459L50.7674 6.89918L51.5267 10.8541L48 8.9098L44.4733 10.8541L45.2326 6.89918L42.2937 4.1459L46.2897 3.64593L48 0Z" fill="#51C8ED"/>
<path d="M20 0L21.7103 3.64593L25.7063 4.1459L22.7674 6.89918L23.5267 10.8541L20 8.9098L16.4733 10.8541L17.2326 6.89918L14.2937 4.1459L18.2897 3.64593L20 0Z" fill="#51C8ED"/>
<path d="M34 0L35.7103 3.64593L39.7063 4.1459L36.7674 6.89918L37.5267 10.8541L34 8.9098L30.4733 10.8541L31.2326 6.89918L28.2937 4.1459L32.2897 3.64593L34 0Z" fill="#51C8ED"/>
<path d="M6 0L7.71034 3.64593L11.7063 4.1459L8.76738 6.89918L9.52671 10.8541L6 8.9098L2.47329 10.8541L3.23262 6.89918L0.293661 4.1459L4.28966 3.64593L6 0Z" fill="#51C8ED"/>
</svg>
